<svg width="197" height="32" viewBox="0 0 197 32" fill="none" xmlns="http://www.w3.org/2000/svg">
<path d="M3.92401 2.15247V29.991L0 32V0L3.92401 2.15247Z" fill="#C62727"/>
<path d="M8.5747 4.73543V13.704H25.1427L8.5747 4.73543Z" fill="#C62727"/>
<path d="M13.516 5.23767L13.882 7.15355L21.1427 11.0914L13.516 5.23767Z" fill="#C62727"/>
<path d="M8.5747 27.2646V18.296H25.1427L8.5747 27.2646Z" fill="#C62727"/>
<path d="M13.516 26.7623L13.882 24.8464L21.1427 20.9086L13.516 26.7623Z" fill="#C62727"/>
<path d="M38.9046 26.7265C37.7058 26.7265 36.7808 26.3915 36.1295 25.7213C35.4876 25.0417 35.1667 24.0883 35.1667 22.8612V14.451H33.5809C33.411 14.451 33.2647 14.3991 33.142 14.2953C33.0193 14.182 32.9579 14.0168 32.9579 13.7997V12.5679L35.2941 12.2281L35.9596 8.05136C36.0068 7.89089 36.087 7.76347 36.2003 7.66908C36.3135 7.56525 36.4646 7.51333 36.6533 7.51333H38.2108V12.2565H42.2177V14.451H38.2108V22.6489C38.2108 23.168 38.3382 23.5645 38.5931 23.8382C38.8479 24.1119 39.1877 24.2488 39.6125 24.2488C39.8485 24.2488 40.0514 24.2205 40.2213 24.1638C40.3912 24.0978 40.5375 24.0317 40.6602 23.9656C40.7829 23.8901 40.8868 23.824 40.9717 23.7674C41.0661 23.7013 41.1558 23.6683 41.2407 23.6683C41.4106 23.6683 41.5475 23.7627 41.6513 23.9515L42.5575 25.4381C42.0855 25.8534 41.5286 26.1744 40.8868 26.4009C40.2449 26.618 39.5842 26.7265 38.9046 26.7265ZM53.1291 17.6509C53.1291 17.1412 53.0536 16.6692 52.9025 16.235C52.7609 15.7914 52.5486 15.4091 52.2654 15.0882C51.9822 14.7578 51.6283 14.503 51.2035 14.3236C50.7882 14.1348 50.3068 14.0404 49.7593 14.0404C48.655 14.0404 47.7866 14.3566 47.1541 14.9891C46.5217 15.6215 46.1206 16.5088 45.9507 17.6509H53.1291ZM45.8657 19.5198C45.9035 20.341 46.0309 21.0537 46.248 21.6578C46.4651 22.2524 46.753 22.748 47.1117 23.1444C47.4798 23.5409 47.914 23.8382 48.4143 24.0364C48.924 24.2252 49.4903 24.3196 50.1133 24.3196C50.708 24.3196 51.2224 24.2535 51.6566 24.1214C52.0908 23.9798 52.4683 23.8287 52.7893 23.6683C53.1102 23.4984 53.3839 23.3474 53.6105 23.2152C53.837 23.0736 54.0447 23.0028 54.2334 23.0028C54.4789 23.0028 54.6676 23.0972 54.7998 23.286L55.6635 24.4045C55.3048 24.8293 54.8989 25.188 54.4458 25.4806C53.9927 25.7732 53.5114 26.0139 53.0016 26.2027C52.4919 26.382 51.9681 26.5094 51.43 26.585C50.892 26.6699 50.3681 26.7124 49.8584 26.7124C48.8579 26.7124 47.9282 26.5472 47.0692 26.2168C46.2197 25.877 45.4787 25.3815 44.8463 24.7302C44.2233 24.0789 43.7325 23.2718 43.3738 22.3091C43.0246 21.3463 42.8499 20.2372 42.8499 18.9818C42.8499 17.9812 43.0057 17.0468 43.3172 16.1784C43.6381 15.31 44.0912 14.5549 44.6764 13.913C45.2711 13.2712 45.9884 12.7662 46.8285 12.398C47.678 12.0205 48.6361 11.8317 49.7027 11.8317C50.59 11.8317 51.4112 11.978 52.1663 12.2706C52.9214 12.5538 53.5727 12.9738 54.1202 13.5307C54.6676 14.0876 55.0924 14.772 55.3944 15.5837C55.7059 16.386 55.8617 17.3016 55.8617 18.3305C55.8617 18.8024 55.8098 19.1187 55.7059 19.2791C55.6021 19.4396 55.4133 19.5198 55.1396 19.5198H45.8657ZM68.0593 14.89C67.9649 15.0127 67.8752 15.1071 67.7903 15.1731C67.7053 15.2392 67.5826 15.2722 67.4222 15.2722C67.2617 15.2722 67.0918 15.2156 66.9125 15.1023C66.7426 14.9891 66.5349 14.8664 66.2895 14.7342C66.0535 14.5926 65.7656 14.4652 65.4258 14.3519C65.086 14.2387 64.6612 14.182 64.1515 14.182C63.4908 14.182 62.9103 14.3 62.41 14.536C61.9192 14.772 61.5039 15.1118 61.1641 15.5554C60.8337 15.9896 60.5836 16.5229 60.4137 17.1553C60.2532 17.7783 60.173 18.4815 60.173 19.265C60.173 20.0767 60.2626 20.7988 60.442 21.4312C60.6213 22.0636 60.8762 22.5969 61.2065 23.0311C61.5464 23.4653 61.9522 23.7957 62.4242 24.0222C62.9056 24.2488 63.4436 24.3621 64.0383 24.3621C64.6235 24.3621 65.1002 24.2913 65.4683 24.1497C65.8364 24.0081 66.1432 23.8523 66.3886 23.6824C66.634 23.5125 66.8417 23.3568 67.0116 23.2152C67.1909 23.0736 67.3797 23.0028 67.5779 23.0028C67.8233 23.0028 68.0121 23.0972 68.1443 23.286L69.0079 24.4045C68.6587 24.8293 68.2717 25.188 67.8469 25.4806C67.4222 25.7732 66.9738 26.0139 66.5019 26.2027C66.0299 26.382 65.5391 26.5094 65.0294 26.585C64.5197 26.6699 64.0052 26.7124 63.4861 26.7124C62.5894 26.7124 61.7493 26.5472 60.9659 26.2168C60.1918 25.877 59.5122 25.3909 58.927 24.7585C58.3512 24.1166 57.8934 23.3379 57.5536 22.4223C57.2233 21.4973 57.0581 20.4448 57.0581 19.265C57.0581 18.1983 57.2091 17.212 57.5112 16.3058C57.8132 15.3902 58.2521 14.6021 58.8279 13.9413C59.4131 13.2806 60.1352 12.7662 60.9942 12.398C61.8531 12.0205 62.8442 11.8317 63.9675 11.8317C65.0152 11.8317 65.9355 12.0016 66.7284 12.3414C67.5307 12.6812 68.2434 13.1626 68.8663 13.7856L68.0593 14.89ZM73.6511 13.7714C74.2457 13.1862 74.897 12.719 75.6049 12.3697C76.3129 12.011 77.1388 11.8317 78.0827 11.8317C78.8756 11.8317 79.5694 11.9638 80.164 12.2281C80.7681 12.4924 81.2731 12.8653 81.679 13.3467C82.0943 13.8281 82.4058 14.4086 82.6134 15.0882C82.8211 15.7583 82.9249 16.4993 82.9249 17.3111V26.5H79.895V17.3111C79.895 16.3389 79.6685 15.5837 79.2154 15.0457C78.7718 14.5077 78.0921 14.2387 77.1766 14.2387C76.4969 14.2387 75.8645 14.3944 75.2793 14.7059C74.7035 15.0174 74.1608 15.4421 73.6511 15.9802V26.5H70.607V5.54529H73.6511V13.7714ZM94.2531 14.6776C94.1776 14.8097 94.0927 14.9041 93.9983 14.9607C93.9039 15.0174 93.7859 15.0457 93.6443 15.0457C93.4839 15.0457 93.3092 14.9985 93.1204 14.9041C92.9317 14.8003 92.7099 14.687 92.455 14.5643C92.2001 14.4416 91.8981 14.3331 91.5488 14.2387C91.209 14.1348 90.8079 14.0829 90.3454 14.0829C89.9678 14.0829 89.6233 14.1301 89.3118 14.2245C89.0097 14.3095 88.7502 14.4369 88.5331 14.6068C88.3254 14.7672 88.1649 14.9607 88.0517 15.1873C87.9384 15.4044 87.8818 15.6404 87.8818 15.8952C87.8818 16.235 87.9856 16.5182 88.1933 16.7447C88.4009 16.9713 88.6747 17.1695 89.0145 17.3394C89.3543 17.4999 89.7413 17.6462 90.1755 17.7783C90.6097 17.9105 91.0533 18.052 91.5064 18.2031C91.9594 18.3541 92.4031 18.5287 92.8373 18.7269C93.2715 18.9252 93.6585 19.1706 93.9983 19.4632C94.3381 19.7464 94.6118 20.0956 94.8195 20.5109C95.0271 20.9168 95.131 21.4123 95.131 21.9976C95.131 22.6772 95.0083 23.3049 94.7628 23.8807C94.5174 24.4564 94.1587 24.9567 93.6868 25.3815C93.2148 25.8062 92.6249 26.1366 91.917 26.3726C91.2185 26.6085 90.4162 26.7265 89.51 26.7265C89.0097 26.7265 88.5236 26.6793 88.0517 26.585C87.5892 26.5 87.1455 26.382 86.7208 26.231C86.3054 26.0705 85.9137 25.8817 85.5456 25.6646C85.1869 25.4475 84.866 25.2116 84.5828 24.9567L85.2907 23.7957C85.3757 23.6541 85.4795 23.5456 85.6022 23.4701C85.7344 23.3851 85.8948 23.3426 86.0836 23.3426C86.2819 23.3426 86.4754 23.4087 86.6641 23.5409C86.8624 23.6636 87.0889 23.8004 87.3437 23.9515C87.608 24.1025 87.9242 24.2441 88.2924 24.3762C88.6605 24.4989 89.1183 24.5603 89.6658 24.5603C90.1188 24.5603 90.5105 24.5084 90.8409 24.4045C91.1713 24.2913 91.445 24.1402 91.6621 23.9515C91.8792 23.7627 92.0397 23.5503 92.1435 23.3143C92.2473 23.0689 92.2993 22.8093 92.2993 22.5356C92.2993 22.1675 92.1954 21.8654 91.9878 21.6294C91.7801 21.3935 91.5017 21.1905 91.1524 21.0206C90.8126 20.8507 90.4209 20.6997 89.9772 20.5676C89.543 20.4354 89.0994 20.2938 88.6463 20.1428C88.1933 19.9918 87.7449 19.8171 87.3013 19.6189C86.8671 19.4207 86.4754 19.1706 86.1261 18.8685C85.7863 18.557 85.5126 18.1842 85.3049 17.75C85.0972 17.3064 84.9934 16.7683 84.9934 16.1359C84.9934 15.5601 85.1067 15.0127 85.3332 14.4935C85.5692 13.9744 85.909 13.5166 86.3526 13.1201C86.8057 12.7237 87.3579 12.4122 88.0092 12.1857C88.6699 11.9497 89.4298 11.8317 90.2887 11.8317C91.261 11.8317 92.1435 11.9874 92.9364 12.2989C93.7293 12.6104 94.3947 13.0352 94.9327 13.5732L94.2531 14.6776ZM101.772 26.7265C100.573 26.7265 99.6482 26.3915 98.9969 25.7213C98.3551 25.0417 98.0341 24.0883 98.0341 22.8612V14.451H96.4484C96.2785 14.451 96.1322 14.3991 96.0095 14.2953C95.8868 14.182 95.8254 14.0168 95.8254 13.7997V12.5679L98.1616 12.2281L98.827 8.05136C98.8742 7.89089 98.9545 7.76347 99.0677 7.66908C99.181 7.56525 99.332 7.51333 99.5208 7.51333H101.078V12.2565H105.085V14.451H101.078V22.6489C101.078 23.168 101.206 23.5645 101.461 23.8382C101.715 24.1119 102.055 24.2488 102.48 24.2488C102.716 24.2488 102.919 24.2205 103.089 24.1638C103.259 24.0978 103.405 24.0317 103.528 23.9656C103.65 23.8901 103.754 23.824 103.839 23.7674C103.934 23.7013 104.023 23.6683 104.108 23.6683C104.278 23.6683 104.415 23.7627 104.519 23.9515L105.425 25.4381C104.953 25.8534 104.396 26.1744 103.754 26.4009C103.112 26.618 102.452 26.7265 101.772 26.7265ZM114.351 20.1853C113.266 20.223 112.35 20.3127 111.605 20.4543C110.859 20.5864 110.255 20.7611 109.792 20.9781C109.33 21.1858 108.995 21.4359 108.787 21.7286C108.589 22.0212 108.49 22.3421 108.49 22.6913C108.49 23.0311 108.542 23.3238 108.646 23.5692C108.759 23.8051 108.91 24.0034 109.099 24.1638C109.297 24.3149 109.523 24.4281 109.778 24.5036C110.043 24.5697 110.33 24.6027 110.642 24.6027C111.435 24.6027 112.114 24.4564 112.681 24.1638C113.257 23.8618 113.813 23.4276 114.351 22.8612V20.1853ZM106.281 14.0688C107.914 12.5491 109.858 11.7892 112.114 11.7892C112.945 11.7892 113.681 11.9261 114.323 12.1998C114.974 12.4641 115.517 12.8417 115.951 13.3325C116.395 13.8233 116.73 14.4086 116.957 15.0882C117.193 15.7583 117.311 16.504 117.311 17.3252V26.5H115.951C115.659 26.5 115.437 26.4575 115.286 26.3726C115.135 26.2782 115.007 26.0941 114.904 25.8204L114.606 24.6452C114.238 24.9756 113.875 25.2729 113.516 25.5372C113.157 25.7921 112.785 26.0092 112.398 26.1885C112.02 26.3679 111.609 26.5 111.166 26.585C110.732 26.6793 110.25 26.7265 109.722 26.7265C109.136 26.7265 108.589 26.6463 108.079 26.4858C107.579 26.3254 107.145 26.0847 106.777 25.7638C106.409 25.4334 106.116 25.0275 105.899 24.5461C105.691 24.0647 105.587 23.4984 105.587 22.8471C105.587 22.2902 105.734 21.7474 106.026 21.2188C106.328 20.6903 106.819 20.2183 107.499 19.803C108.188 19.3782 109.089 19.029 110.203 18.7553C111.326 18.4815 112.709 18.3258 114.351 18.288V17.3252C114.351 16.2869 114.13 15.5129 113.686 15.0032C113.242 14.4935 112.591 14.2387 111.732 14.2387C111.147 14.2387 110.656 14.3142 110.26 14.4652C109.863 14.6068 109.519 14.7625 109.226 14.9324C108.933 15.1023 108.674 15.2628 108.447 15.4138C108.221 15.5554 107.98 15.6262 107.725 15.6262C107.518 15.6262 107.338 15.5743 107.187 15.4705C107.046 15.3572 106.928 15.2203 106.833 15.0599L106.281 14.0688ZM123.128 5.54529V26.5H120.084V5.54529H123.128ZM146.325 12.0582L141.695 26.5H139.274C138.991 26.5 138.793 26.3159 138.679 25.9478L135.805 16.9571C135.73 16.7023 135.659 16.4474 135.593 16.1925C135.536 15.9377 135.484 15.6876 135.437 15.4421C135.333 15.9519 135.206 16.4616 135.055 16.9713L132.138 25.9478C132.034 26.3159 131.812 26.5 131.473 26.5H129.165L124.535 12.0582H126.942C127.178 12.0582 127.371 12.1196 127.522 12.2423C127.683 12.3556 127.787 12.4924 127.834 12.6529L130.241 21.0631C130.335 21.4501 130.415 21.8277 130.481 22.1958C130.557 22.5545 130.623 22.9132 130.68 23.2718C130.774 22.9132 130.873 22.5545 130.977 22.1958C131.081 21.8277 131.189 21.4501 131.303 21.0631L134.007 12.6104C134.054 12.4405 134.149 12.3037 134.29 12.1998C134.441 12.0866 134.62 12.0299 134.828 12.0299H136.159C136.376 12.0299 136.56 12.0866 136.711 12.1998C136.862 12.3037 136.961 12.4405 137.009 12.6104L139.642 21.0631C139.755 21.4501 139.859 21.8277 139.954 22.1958C140.057 22.5639 140.152 22.932 140.237 23.3002C140.303 22.9415 140.374 22.5781 140.449 22.2099C140.525 21.8418 140.614 21.4595 140.718 21.0631L143.168 12.6529C143.224 12.483 143.328 12.3414 143.479 12.2281C143.63 12.1149 143.814 12.0582 144.031 12.0582H146.325ZM155.219 20.1853C154.133 20.223 153.218 20.3127 152.472 20.4543C151.726 20.5864 151.122 20.7611 150.66 20.9781C150.197 21.1858 149.862 21.4359 149.655 21.7286C149.456 22.0212 149.357 22.3421 149.357 22.6913C149.357 23.0311 149.409 23.3238 149.513 23.5692C149.626 23.8051 149.777 24.0034 149.966 24.1638C150.164 24.3149 150.391 24.4281 150.646 24.5036C150.91 24.5697 151.198 24.6027 151.509 24.6027C152.302 24.6027 152.982 24.4564 153.548 24.1638C154.124 23.8618 154.681 23.4276 155.219 22.8612V20.1853ZM147.149 14.0688C148.781 12.5491 150.726 11.7892 152.982 11.7892C153.812 11.7892 154.549 11.9261 155.191 12.1998C155.842 12.4641 156.385 12.8417 156.819 13.3325C157.262 13.8233 157.598 14.4086 157.824 15.0882C158.06 15.7583 158.178 16.504 158.178 17.3252V26.5H156.819C156.526 26.5 156.304 26.4575 156.153 26.3726C156.002 26.2782 155.875 26.0941 155.771 25.8204L155.474 24.6452C155.106 24.9756 154.742 25.2729 154.384 25.5372C154.025 25.7921 153.652 26.0092 153.265 26.1885C152.887 26.3679 152.477 26.5 152.033 26.585C151.599 26.6793 151.118 26.7265 150.589 26.7265C150.004 26.7265 149.456 26.6463 148.947 26.4858C148.446 26.3254 148.012 26.0847 147.644 25.7638C147.276 25.4334 146.983 25.0275 146.766 24.5461C146.559 24.0647 146.455 23.4984 146.455 22.8471C146.455 22.2902 146.601 21.7474 146.894 21.2188C147.196 20.6903 147.687 20.2183 148.366 19.803C149.055 19.3782 149.957 19.029 151.07 18.7553C152.194 18.4815 153.577 18.3258 155.219 18.288V17.3252C155.219 16.2869 154.997 15.5129 154.553 15.0032C154.11 14.4935 153.459 14.2387 152.6 14.2387C152.014 14.2387 151.524 14.3142 151.127 14.4652C150.731 14.6068 150.386 14.7625 150.094 14.9324C149.801 15.1023 149.541 15.2628 149.315 15.4138C149.088 15.5554 148.848 15.6262 148.593 15.6262C148.385 15.6262 148.206 15.5743 148.055 15.4705C147.913 15.3572 147.795 15.2203 147.701 15.0599L147.149 14.0688ZM163.769 14.7342C164.222 13.8186 164.769 13.1013 165.411 12.5821C166.053 12.0535 166.822 11.7892 167.719 11.7892C168.03 11.7892 168.323 11.827 168.597 11.9025C168.871 11.9686 169.116 12.0724 169.333 12.214L169.121 14.5077C169.083 14.6681 169.022 14.7814 168.937 14.8475C168.861 14.9041 168.757 14.9324 168.625 14.9324C168.484 14.9324 168.281 14.9088 168.016 14.8616C167.752 14.805 167.474 14.7767 167.181 14.7767C166.756 14.7767 166.379 14.838 166.048 14.9607C165.727 15.0835 165.435 15.2628 165.17 15.4988C164.916 15.7348 164.689 16.0226 164.491 16.3624C164.293 16.7023 164.109 17.0893 163.939 17.5235V26.5H160.895V12.0582H162.664C162.985 12.0582 163.207 12.1196 163.33 12.2423C163.453 12.3556 163.537 12.5585 163.585 12.8511L163.769 14.7342ZM175.128 26.7265C173.929 26.7265 173.004 26.3915 172.353 25.7213C171.711 25.0417 171.39 24.0883 171.39 22.8612V14.451H169.804C169.634 14.451 169.488 14.3991 169.365 14.2953C169.243 14.182 169.181 14.0168 169.181 13.7997V12.5679L171.517 12.2281L172.183 8.05136C172.23 7.89089 172.31 7.76347 172.424 7.66908C172.537 7.56525 172.688 7.51333 172.877 7.51333H174.434V12.2565H178.441V14.451H174.434V22.6489C174.434 23.168 174.562 23.5645 174.816 23.8382C175.071 24.1119 175.411 24.2488 175.836 24.2488C176.072 24.2488 176.275 24.2205 176.445 24.1638C176.615 24.0978 176.761 24.0317 176.884 23.9656C177.006 23.8901 177.11 23.824 177.195 23.7674C177.289 23.7013 177.379 23.6683 177.464 23.6683C177.634 23.6683 177.771 23.7627 177.875 23.9515L178.781 25.4381C178.309 25.8534 177.752 26.1744 177.11 26.4009C176.468 26.618 175.807 26.7265 175.128 26.7265ZM188.613 14.6776C188.538 14.8097 188.453 14.9041 188.359 14.9607C188.264 15.0174 188.146 15.0457 188.005 15.0457C187.844 15.0457 187.67 14.9985 187.481 14.9041C187.292 14.8003 187.07 14.687 186.815 14.5643C186.56 14.4416 186.258 14.3331 185.909 14.2387C185.569 14.1348 185.168 14.0829 184.706 14.0829C184.328 14.0829 183.984 14.1301 183.672 14.2245C183.37 14.3095 183.111 14.4369 182.893 14.6068C182.686 14.7672 182.525 14.9607 182.412 15.1873C182.299 15.4044 182.242 15.6404 182.242 15.8952C182.242 16.235 182.346 16.5182 182.554 16.7447C182.761 16.9713 183.035 17.1695 183.375 17.3394C183.715 17.4999 184.102 17.6462 184.536 17.7783C184.97 17.9105 185.414 18.052 185.867 18.2031C186.32 18.3541 186.763 18.5287 187.198 18.7269C187.632 18.9252 188.019 19.1706 188.359 19.4632C188.698 19.7464 188.972 20.0956 189.18 20.5109C189.387 20.9168 189.491 21.4123 189.491 21.9976C189.491 22.6772 189.369 23.3049 189.123 23.8807C188.878 24.4564 188.519 24.9567 188.047 25.3815C187.575 25.8062 186.985 26.1366 186.277 26.3726C185.579 26.6085 184.777 26.7265 183.87 26.7265C183.37 26.7265 182.884 26.6793 182.412 26.585C181.95 26.5 181.506 26.382 181.081 26.231C180.666 26.0705 180.274 25.8817 179.906 25.6646C179.547 25.4475 179.226 25.2116 178.943 24.9567L179.651 23.7957C179.736 23.6541 179.84 23.5456 179.963 23.4701C180.095 23.3851 180.255 23.3426 180.444 23.3426C180.642 23.3426 180.836 23.4087 181.024 23.5409C181.223 23.6636 181.449 23.8004 181.704 23.9515C181.968 24.1025 182.285 24.2441 182.653 24.3762C183.021 24.4989 183.479 24.5603 184.026 24.5603C184.479 24.5603 184.871 24.5084 185.201 24.4045C185.532 24.2913 185.805 24.1402 186.022 23.9515C186.24 23.7627 186.4 23.5503 186.504 23.3143C186.608 23.0689 186.66 22.8093 186.66 22.5356C186.66 22.1675 186.556 21.8654 186.348 21.6294C186.14 21.3935 185.862 21.1905 185.513 21.0206C185.173 20.8507 184.781 20.6997 184.338 20.5676C183.903 20.4354 183.46 20.2938 183.007 20.1428C182.554 19.9918 182.105 19.8171 181.662 19.6189C181.227 19.4207 180.836 19.1706 180.486 18.8685C180.147 18.557 179.873 18.1842 179.665 17.75C179.458 17.3064 179.354 16.7683 179.354 16.1359C179.354 15.5601 179.467 15.0127 179.694 14.4935C179.93 13.9744 180.269 13.5166 180.713 13.1201C181.166 12.7237 181.718 12.4122 182.37 12.1857C183.03 11.9497 183.79 11.8317 184.649 11.8317C185.621 11.8317 186.504 11.9874 187.297 12.2989C188.09 12.6104 188.755 13.0352 189.293 13.5732L188.613 14.6776Z" fill="white"/>
<path d="M191.035 24.7443C191.035 24.4706 191.082 24.2157 191.177 23.9798C191.281 23.7344 191.418 23.522 191.587 23.3426C191.767 23.1633 191.974 23.0217 192.21 22.9179C192.456 22.814 192.715 22.7621 192.989 22.7621C193.263 22.7621 193.518 22.814 193.754 22.9179C193.999 23.0217 194.212 23.1633 194.391 23.3426C194.57 23.522 194.712 23.7344 194.816 23.9798C194.919 24.2157 194.971 24.4706 194.971 24.7443C194.971 25.0275 194.919 25.2871 194.816 25.5231C194.712 25.759 194.57 25.9667 194.391 26.146C194.212 26.3254 193.999 26.4622 193.754 26.5566C193.518 26.6605 193.263 26.7124 192.989 26.7124C192.715 26.7124 192.456 26.6605 192.21 26.5566C191.974 26.4622 191.767 26.3254 191.587 26.146C191.418 25.9667 191.281 25.759 191.177 25.5231C191.082 25.2871 191.035 25.0275 191.035 24.7443Z" fill="#C62727"/>
</svg>
