<?xml version="1.0" encoding="UTF-8"?>
<svg xmlns="http://www.w3.org/2000/svg" viewBox="0 0 1500 1000" preserveAspectRatio="xMidYMid meet" role="img" aria-label="Isometric illustration of a person at a desk with a holographic cube, lightbulb idea, and floating UI panels.">
  <defs>
    <!-- BG radial glow -->
    <radialGradient id="bgGlow" cx="50%" cy="50%" r="55%">
      <stop offset="0%" stop-color="#1b1146" stop-opacity="1"/>
      <stop offset="55%" stop-color="#0b0a22" stop-opacity="1"/>
      <stop offset="100%" stop-color="#050510" stop-opacity="1"/>
    </radialGradient>

    <!-- Line gradients -->
    <linearGradient id="neon" x1="0" y1="0" x2="1" y2="1">
      <stop offset="0%" stop-color="#8b5cf6"/>
      <stop offset="50%" stop-color="#a78bfa"/>
      <stop offset="100%" stop-color="#ec4899"/>
    </linearGradient>
    <linearGradient id="neonBlue" x1="0" y1="0" x2="1" y2="1">
      <stop offset="0%" stop-color="#22d3ee"/>
      <stop offset="100%" stop-color="#8b5cf6"/>
    </linearGradient>
    <linearGradient id="neonPink" x1="0" y1="0" x2="0" y2="1">
      <stop offset="0%" stop-color="#ec4899"/>
      <stop offset="100%" stop-color="#8b5cf6"/>
    </linearGradient>
    <linearGradient id="personGrad" x1="0" y1="0" x2="1" y2="1">
      <stop offset="0%" stop-color="#6d28d9"/>
      <stop offset="100%" stop-color="#db2777"/>
    </linearGradient>

    <!-- Inner cube fill -->
    <linearGradient id="cubeTop" x1="0" y1="0" x2="0" y2="1">
      <stop offset="0%" stop-color="#f472b6"/>
      <stop offset="100%" stop-color="#c026d3"/>
    </linearGradient>
    <linearGradient id="cubeLeft" x1="0" y1="0" x2="0" y2="1">
      <stop offset="0%" stop-color="#7c3aed"/>
      <stop offset="100%" stop-color="#4c1d95"/>
    </linearGradient>
    <linearGradient id="cubeRight" x1="0" y1="0" x2="0" y2="1">
      <stop offset="0%" stop-color="#a855f7"/>
      <stop offset="100%" stop-color="#5b21b6"/>
    </linearGradient>

    <!-- Light cone -->
    <linearGradient id="lightBeam" x1="0" y1="0" x2="0" y2="1">
      <stop offset="0%" stop-color="#f472b6" stop-opacity=".55"/>
      <stop offset="100%" stop-color="#8b5cf6" stop-opacity="0"/>
    </linearGradient>
    <linearGradient id="lightBeamUp" x1="0" y1="1" x2="0" y2="0">
      <stop offset="0%" stop-color="#22d3ee" stop-opacity=".45"/>
      <stop offset="100%" stop-color="#22d3ee" stop-opacity="0"/>
    </linearGradient>

    <!-- Glow filter -->
    <filter id="softGlow" x="-50%" y="-50%" width="200%" height="200%">
      <feGaussianBlur stdDeviation="4" result="b"/>
      <feMerge><feMergeNode in="b"/><feMergeNode in="SourceGraphic"/></feMerge>
    </filter>
    <filter id="bigGlow" x="-100%" y="-100%" width="300%" height="300%">
      <feGaussianBlur stdDeviation="10" result="b"/>
      <feMerge><feMergeNode in="b"/><feMergeNode in="SourceGraphic"/></feMerge>
    </filter>

    <!-- Hex node gradient -->
    <linearGradient id="hexGrad" x1="0" y1="0" x2="1" y2="1">
      <stop offset="0%" stop-color="#22d3ee"/>
      <stop offset="100%" stop-color="#c026d3"/>
    </linearGradient>

    <!-- UI panel gradients -->
    <linearGradient id="panelLine" x1="0" y1="0" x2="1" y2="1">
      <stop offset="0%" stop-color="#7c3aed"/>
      <stop offset="100%" stop-color="#ec4899"/>
    </linearGradient>

    <!-- Reusable hex -->
    <symbol id="hex" viewBox="-14 -16 28 32">
      <polygon points="0,-14 12,-7 12,7 0,14 -12,7 -12,-7" fill="#0b0a22" stroke="url(#hexGrad)" stroke-width="1.5"/>
      <polygon points="0,-10 9,-5 9,5 0,10 -9,5 -9,-5" fill="url(#hexGrad)" opacity=".55"/>
      <polygon points="0,-14 0,-10 9,-5 12,-7" fill="#22d3ee" opacity=".7"/>
    </symbol>

    <!-- Reusable small wire cube -->
    <symbol id="wireCube" viewBox="-30 -35 60 70">
      <g stroke="url(#neon)" stroke-width="1" fill="none" opacity=".55">
        <!-- top rhombus -->
        <polygon points="0,-30 24,-16 0,-2 -24,-16"/>
        <!-- left face -->
        <polyline points="-24,-16 -24,14 0,28 0,-2"/>
        <!-- right face -->
        <polyline points="24,-16 24,14 0,28"/>
        <!-- bottom edge -->
        <line x1="-24" y1="14" x2="0" y2="28"/>
      </g>
    </symbol>
  </defs>

  <!-- BACKGROUND -->
  <rect width="1500" height="1000" fill="url(#bgGlow)"/>

  <!-- Starfield -->
  <g fill="#ffffff" opacity=".5">
    <circle cx="150" cy="120" r="1"/>
    <circle cx="220" cy="340" r="1"/>
    <circle cx="340" cy="90" r=".8"/>
    <circle cx="480" cy="180" r="1.2"/>
    <circle cx="700" cy="70" r="1"/>
    <circle cx="820" cy="140" r=".9"/>
    <circle cx="980" cy="60" r="1.1"/>
    <circle cx="1180" cy="150" r="1"/>
    <circle cx="1290" cy="260" r=".8"/>
    <circle cx="1380" cy="480" r="1"/>
    <circle cx="1420" cy="680" r="1"/>
    <circle cx="1300" cy="840" r=".9"/>
    <circle cx="170" cy="620" r="1"/>
    <circle cx="100" cy="820" r="1.1"/>
    <circle cx="260" cy="900" r=".8"/>
    <circle cx="60" cy="450" r="1"/>
    <circle cx="1190" cy="900" r="1"/>
  </g>

  <!-- Soft ambient glow behind scene -->
  <ellipse cx="780" cy="500" rx="520" ry="340" fill="#7c3aed" opacity=".10"/>
  <ellipse cx="780" cy="500" rx="380" ry="220" fill="#ec4899" opacity=".08"/>

  <!-- Big orbital ellipse around scene -->
  <g opacity=".55">
    <ellipse cx="780" cy="500" rx="620" ry="400" fill="none" stroke="url(#neon)" stroke-width="1.2" stroke-dasharray="2 8"/>
  </g>

  <!-- Hex nodes on orbit -->
  <g>
    <use href="#hex" x="350" y="138" width="28" height="32">
      <animateTransform attributeName="transform" type="translate" values="0,0; 0,-6; 0,0" dur="5s" repeatCount="indefinite"/>
    </use>
    <use href="#hex" x="146" y="456" width="28" height="32">
      <animateTransform attributeName="transform" type="translate" values="0,0; 0,-4; 0,0" dur="6s" repeatCount="indefinite"/>
    </use>
    <use href="#hex" x="1380" y="288" width="28" height="32">
      <animateTransform attributeName="transform" type="translate" values="0,0; 0,-5; 0,0" dur="5.5s" repeatCount="indefinite"/>
    </use>
    <use href="#hex" x="1396" y="596" width="28" height="32">
      <animateTransform attributeName="transform" type="translate" values="0,0; 0,-6; 0,0" dur="4.5s" repeatCount="indefinite"/>
    </use>
  </g>

  <!-- Floor grid / isometric platform lines -->
  <g stroke="#5b21b6" stroke-width=".6" fill="none" opacity=".35">
    <!-- isometric grid left of desk -->
    <line x1="300" y1="900" x2="900" y2="600"/>
    <line x1="300" y1="820" x2="900" y2="520"/>
    <line x1="300" y1="740" x2="900" y2="440"/>
    <line x1="900" y1="600" x2="1300" y2="800"/>
    <line x1="900" y1="520" x2="1300" y2="720"/>
    <line x1="900" y1="440" x2="1300" y2="640"/>
  </g>

  <!-- Small decorative wire cubes -->
  <g opacity=".6">
    <use href="#wireCube" x="230" y="440" width="50" height="58"/>
    <use href="#wireCube" x="180" y="640" width="60" height="70"/>
    <use href="#wireCube" x="1260" y="420" width="55" height="64"/>
    <use href="#wireCube" x="1280" y="720" width="48" height="56"/>
  </g>

  <!-- =========================================================
       UI PANELS (floating) — drawn before desk so they sit behind
       ========================================================= -->
  <!-- Mobile panel (left) -->
  <g stroke="url(#panelLine)" stroke-width="1.5" fill="none" opacity=".9">
    <!-- phone frame -->
    <rect x="340" y="240" width="120" height="220" rx="16"/>
    <rect x="354" y="262" width="92" height="80" rx="4"/>
    <rect x="354" y="350" width="26" height="26" rx="4"/>
    <rect x="384" y="350" width="26" height="26" rx="4"/>
    <rect x="414" y="350" width="26" height="26" rx="4"/>
    <line x1="354" y1="394" x2="446" y2="394"/>
    <line x1="354" y1="410" x2="420" y2="410"/>
    <line x1="354" y1="426" x2="440" y2="426"/>
    <!-- card card beside phone -->
    <rect x="480" y="260" width="180" height="160" rx="10"/>
    <line x1="494" y1="286" x2="640" y2="286"/>
    <line x1="494" y1="306" x2="620" y2="306"/>
    <rect x="494" y="326" width="146" height="70" rx="4"/>
  </g>

  <!-- Browser panel (upper right) -->
  <g stroke="url(#panelLine)" stroke-width="1.5" fill="none" opacity=".9">
    <rect x="980" y="220" width="260" height="150" rx="10"/>
    <line x1="980" y1="248" x2="1240" y2="248"/>
    <circle cx="996" cy="234" r="3.5"/>
    <circle cx="1010" cy="234" r="3.5"/>
    <circle cx="1024" cy="234" r="3.5"/>
    <rect x="998" y="266" width="160" height="18" rx="3"/>
    <rect x="998" y="294" width="140" height="10" rx="2"/>
    <rect x="998" y="312" width="120" height="10" rx="2"/>
    <rect x="998" y="330" width="160" height="28" rx="3"/>
  </g>

  <!-- Flowchart panel (middle right) -->
  <g stroke="url(#panelLine)" stroke-width="1.5" fill="none" opacity=".9">
    <rect x="1000" y="410" width="240" height="160" rx="10"/>
    <rect x="1022" y="436" width="50" height="30" rx="4"/>
    <rect x="1100" y="436" width="50" height="30" rx="4"/>
    <rect x="1178" y="436" width="50" height="30" rx="4"/>
    <line x1="1072" y1="451" x2="1100" y2="451"/>
    <line x1="1150" y1="451" x2="1178" y2="451"/>
    <rect x="1060" y="496" width="50" height="30" rx="4"/>
    <rect x="1138" y="496" width="50" height="30" rx="4"/>
    <line x1="1097" y1="466" x2="1085" y2="496"/>
    <line x1="1125" y1="466" x2="1163" y2="496"/>
    <line x1="1110" y1="511" x2="1138" y2="511"/>
  </g>

  <!-- Wireframe grid panel (lower right) -->
  <g stroke="url(#panelLine)" stroke-width="1.5" fill="none" opacity=".9">
    <rect x="1000" y="610" width="260" height="160" rx="10"/>
    <rect x="1022" y="636" width="110" height="100" rx="4"/>
    <line x1="1022" y1="636" x2="1132" y2="736"/>
    <line x1="1132" y1="636" x2="1022" y2="736"/>
    <rect x="1148" y="636" width="92" height="46" rx="4"/>
    <rect x="1148" y="692" width="92" height="44" rx="4"/>
  </g>

  <!-- =========================================================
       CENTRAL HOLOGRAM — outer wire cube + inner glowing cube
       ========================================================= -->
  <!-- light beams -->
  <g opacity=".85" style="transform-origin:770px 480px;">
    <polygon points="680,340 860,340 900,200 640,200" fill="url(#lightBeamUp)" opacity=".35">
      <animate attributeName="opacity" values=".2;.45;.2" dur="3s" repeatCount="indefinite"/>
    </polygon>
    <polygon points="680,540 860,540 900,700 640,700" fill="url(#lightBeam)" opacity=".55">
      <animate attributeName="opacity" values=".4;.7;.4" dur="3s" repeatCount="indefinite"/>
    </polygon>
  </g>

  <!-- Outer wire cube (dashed) -->
  <g stroke="url(#neonBlue)" stroke-width="1.5" fill="none" stroke-dasharray="4 6" opacity=".85">
    <!-- top rhombus -->
    <polygon points="770,300 920,380 770,460 620,380"/>
    <!-- left face -->
    <polyline points="620,380 620,540 770,620 770,460"/>
    <!-- right face -->
    <polyline points="920,380 920,540 770,620"/>
    <!-- bottom -->
    <line x1="620" y1="540" x2="770" y2="620"/>
  </g>

  <!-- outer cube corner accents -->
  <g fill="url(#neonBlue)">
    <circle cx="770" cy="300" r="4"/>
    <circle cx="920" cy="380" r="4"/>
    <circle cx="620" cy="380" r="4"/>
    <circle cx="770" cy="460" r="4"/>
    <circle cx="620" cy="540" r="4"/>
    <circle cx="920" cy="540" r="4"/>
    <circle cx="770" cy="620" r="4"/>
  </g>

  <!-- Inner solid cube -->
  <g filter="url(#softGlow)">
    <!-- top -->
    <polygon points="770,380 830,412 770,444 710,412" fill="url(#cubeTop)"/>
    <!-- left -->
    <polygon points="710,412 770,444 770,508 710,476" fill="url(#cubeLeft)"/>
    <!-- right -->
    <polygon points="830,412 770,444 770,508 830,476" fill="url(#cubeRight)"/>
    <!-- edge highlights -->
    <g stroke="#fbcfe8" stroke-width="1" fill="none" opacity=".7">
      <polygon points="770,380 830,412 770,444 710,412"/>
      <line x1="770" y1="444" x2="770" y2="508"/>
      <line x1="710" y1="412" x2="710" y2="476"/>
      <line x1="830" y1="412" x2="830" y2="476"/>
      <line x1="710" y1="476" x2="770" y2="508"/>
      <line x1="830" y1="476" x2="770" y2="508"/>
    </g>
  </g>
  <!-- Inner cube pulsing aura -->
  <ellipse cx="770" cy="444" rx="80" ry="22" fill="#f472b6" opacity=".22">
    <animate attributeName="opacity" values=".15;.35;.15" dur="2.6s" repeatCount="indefinite"/>
  </ellipse>

  <!-- Tiny base cube below -->
  <g filter="url(#softGlow)">
    <polygon points="770,620 800,636 770,652 740,636" fill="url(#cubeTop)"/>
    <polygon points="740,636 770,652 770,680 740,664" fill="url(#cubeLeft)"/>
    <polygon points="800,636 770,652 770,680 800,664" fill="url(#cubeRight)"/>
  </g>

  <!-- =========================================================
       LIGHTBULB ABOVE
       ========================================================= -->
  <g transform="translate(770 160)">
    <!-- glow halo -->
    <circle r="60" fill="#22d3ee" opacity=".15" filter="url(#bigGlow)">
      <animate attributeName="opacity" values=".1;.3;.1" dur="2.4s" repeatCount="indefinite"/>
    </circle>
    <g stroke="url(#neonBlue)" stroke-width="2.2" fill="none" stroke-linecap="round" stroke-linejoin="round" filter="url(#softGlow)">
      <!-- bulb body -->
      <path d="M -28 -10 a 28 28 0 1 1 56 0 c 0 14 -8 22 -12 30 l -32 0 c -4 -8 -12 -16 -12 -30 z"/>
      <!-- filament -->
      <path d="M -10 5 q 5 -10 10 0 q 5 10 10 0"/>
      <!-- base lines -->
      <line x1="-14" y1="28" x2="14" y2="28"/>
      <line x1="-12" y1="34" x2="12" y2="34"/>
      <line x1="-10" y1="40" x2="10" y2="40"/>
      <!-- rays -->
      <line x1="-50" y1="-20" x2="-38" y2="-14" opacity=".7"/>
      <line x1="50" y1="-20" x2="38" y2="-14" opacity=".7"/>
      <line x1="0" y1="-60" x2="0" y2="-48" opacity=".7"/>
      <line x1="-38" y1="-48" x2="-30" y2="-38" opacity=".5"/>
      <line x1="38" y1="-48" x2="30" y2="-38" opacity=".5"/>
    </g>
    <!-- floating sparkles -->
    <g fill="#f472b6">
      <circle cx="-30" cy="-40" r="1.6"><animate attributeName="opacity" values="0;1;0" dur="2s" repeatCount="indefinite"/></circle>
      <circle cx="24" cy="-46" r="1.4"><animate attributeName="opacity" values="0;1;0" dur="2.3s" begin=".4s" repeatCount="indefinite"/></circle>
      <circle cx="40" cy="4" r="1.5"><animate attributeName="opacity" values="0;1;0" dur="1.9s" begin=".9s" repeatCount="indefinite"/></circle>
      <circle cx="-40" cy="10" r="1.3"><animate attributeName="opacity" values="0;1;0" dur="2.1s" begin=".2s" repeatCount="indefinite"/></circle>
      <circle cx="10" cy="-66" r="1.6"><animate attributeName="opacity" values="0;1;0" dur="1.7s" begin=".6s" repeatCount="indefinite"/></circle>
      <circle cx="-10" cy="-70" r="1.2"><animate attributeName="opacity" values="0;1;0" dur="2.4s" begin="1.1s" repeatCount="indefinite"/></circle>
    </g>
    <!-- gentle bob -->
    <animateTransform attributeName="transform" type="translate" values="770,160; 770,150; 770,160" dur="4s" repeatCount="indefinite"/>
  </g>

  <!-- particles streaming up from cube to bulb -->
  <g fill="#22d3ee" filter="url(#softGlow)">
    <circle cx="770" cy="360" r="2">
      <animate attributeName="cy" values="360;220" dur="2.4s" repeatCount="indefinite"/>
      <animate attributeName="opacity" values="0;1;0" dur="2.4s" repeatCount="indefinite"/>
    </circle>
    <circle cx="760" cy="360" r="1.6">
      <animate attributeName="cy" values="360;220" dur="2.8s" begin=".5s" repeatCount="indefinite"/>
      <animate attributeName="opacity" values="0;1;0" dur="2.8s" begin=".5s" repeatCount="indefinite"/>
    </circle>
    <circle cx="784" cy="360" r="1.5">
      <animate attributeName="cy" values="360;220" dur="3s" begin="1s" repeatCount="indefinite"/>
      <animate attributeName="opacity" values="0;1;0" dur="3s" begin="1s" repeatCount="indefinite"/>
    </circle>
  </g>

  <!-- =========================================================
       DESK (isometric)
       ========================================================= -->
  <g>
    <!-- desk top -->
    <polygon points="380,720 1120,720 1260,790 520,790" fill="#0d0a26" stroke="url(#neon)" stroke-width="1.4" opacity=".95"/>
    <polygon points="380,720 1120,720 1260,790 520,790" fill="none" stroke="url(#neon)" stroke-width="1" opacity=".7"/>
    <!-- desk front edge -->
    <polygon points="520,790 1260,790 1260,820 520,820" fill="#070520" stroke="url(#neon)" stroke-width="1" opacity=".7"/>
    <!-- legs (hints) -->
    <line x1="540" y1="818" x2="540" y2="900" stroke="url(#neon)" stroke-width="1" opacity=".5"/>
    <line x1="1240" y1="818" x2="1240" y2="870" stroke="url(#neon)" stroke-width="1" opacity=".5"/>
  </g>

  <!-- Keyboard -->
  <g stroke="url(#neon)" stroke-width="1" fill="#0b0822" opacity=".85">
    <polygon points="720,748 990,748 1010,770 740,770"/>
    <line x1="740" y1="758" x2="1000" y2="758" opacity=".4"/>
    <line x1="750" y1="764" x2="1010" y2="764" opacity=".4"/>
  </g>

  <!-- Mouse -->
  <g stroke="url(#neon)" stroke-width="1" fill="#0b0822" opacity=".85">
    <ellipse cx="1050" cy="760" rx="20" ry="10"/>
  </g>

  <!-- Coffee mug -->
  <g stroke="url(#neonPink)" stroke-width="1.4" fill="#0a0620">
    <ellipse cx="1180" cy="740" rx="20" ry="6"/>
    <path d="M1160 740 v 30 a 20 6 0 0 0 40 0 v -30" fill="#0a0620"/>
    <ellipse cx="1180" cy="740" rx="20" ry="6" fill="#1f0b3a"/>
    <!-- handle -->
    <path d="M1200 746 q 12 4 12 14 q 0 10 -12 14" fill="none"/>
    <!-- steam -->
    <path d="M1174 720 q -4 -10 2 -18 q 6 -8 0 -16" fill="none" stroke="#22d3ee" stroke-width="1" opacity=".6">
      <animate attributeName="opacity" values=".2;.7;.2" dur="3s" repeatCount="indefinite"/>
    </path>
    <path d="M1186 720 q 4 -10 -2 -18 q -6 -8 0 -16" fill="none" stroke="#22d3ee" stroke-width="1" opacity=".5">
      <animate attributeName="opacity" values=".1;.5;.1" dur="3.4s" repeatCount="indefinite"/>
    </path>
  </g>

  <!-- Paper / notebook -->
  <g stroke="url(#neon)" stroke-width="1" fill="#0b0822" opacity=".8">
    <polygon points="620,760 700,760 720,782 640,782"/>
    <line x1="644" y1="768" x2="704" y2="768" opacity=".5"/>
    <line x1="650" y1="774" x2="710" y2="774" opacity=".5"/>
  </g>

  <!-- =========================================================
       PERSON + CHAIR
       ========================================================= -->
  <!-- chair back -->
  <g>
    <path d="M440 720
             q -10 -30 10 -60
             q 25 -20 100 -20
             q 75 0 100 20
             q 20 30 10 60
             l -20 20 l -180 0 z"
          fill="#0a071e" stroke="url(#personGrad)" stroke-width="1.6"/>
    <!-- chair seat -->
    <ellipse cx="550" cy="760" rx="90" ry="18" fill="#0a071e" stroke="url(#personGrad)" stroke-width="1.2"/>
    <!-- chair base pole -->
    <line x1="550" y1="778" x2="550" y2="870" stroke="url(#personGrad)" stroke-width="1.4"/>
    <!-- chair wheels base -->
    <g stroke="url(#personGrad)" stroke-width="1.2" fill="none">
      <line x1="550" y1="870" x2="490" y2="910"/>
      <line x1="550" y1="870" x2="610" y2="910"/>
      <line x1="550" y1="870" x2="530" y2="920"/>
      <circle cx="490" cy="912" r="5"/>
      <circle cx="610" cy="912" r="5"/>
      <circle cx="530" cy="922" r="5"/>
    </g>
  </g>

  <!-- Person silhouette (from behind) -->
  <g filter="url(#softGlow)">
    <!-- torso / back -->
    <path d="M470 720
             q -10 -40 10 -100
             q 15 -40 70 -50
             q 55 10 70 50
             q 20 60 10 100 z"
          fill="#120828" stroke="url(#personGrad)" stroke-width="1.8"/>
    <!-- neck -->
    <path d="M528 580 q 22 -18 44 0 q 0 14 -22 22 q -22 -8 -22 -22 z" fill="#120828" stroke="url(#personGrad)" stroke-width="1.4"/>
    <!-- head -->
    <path d="M510 565
             q 0 -42 40 -50
             q 40 8 40 50
             q 0 26 -20 38
             q -20 6 -40 0
             q -20 -12 -20 -38 z"
          fill="#120828" stroke="url(#personGrad)" stroke-width="1.6"/>
    <!-- hair tuft -->
    <path d="M512 530
             q 14 -22 38 -22
             q 22 0 38 20
             q -10 -4 -22 -2
             q -16 4 -30 -2
             q -14 0 -24 6 z"
          fill="url(#personGrad)" opacity=".85"/>

    <!-- arm propped up (hand on chin) -->
    <path d="M604 630
             q 26 -6 44 10
             q 12 18 0 34
             q -14 10 -30 4
             q -10 -4 -16 -14 z"
          fill="#120828" stroke="url(#personGrad)" stroke-width="1.4"/>
    <!-- hand at chin -->
    <path d="M614 594 q 10 -8 20 -4 q 6 8 -2 16 q -10 6 -18 -2 z"
          fill="#120828" stroke="url(#personGrad)" stroke-width="1.2"/>
    <!-- other arm resting -->
    <path d="M480 720 q -6 -10 0 -24 q 16 -22 60 -18"
          fill="none" stroke="url(#personGrad)" stroke-width="1.6"/>
  </g>

  <!-- rim-light highlight on hair (subtle) -->
  <path d="M530 510 q 20 -18 50 -14" fill="none" stroke="#f472b6" stroke-width="1" opacity=".5"/>

  <!-- Foreground subtle scanline overlay -->
  <rect width="1500" height="1000" fill="url(#bgGlow)" opacity="0"/>
</svg>
